<svg xmlns="http://www.w3.org/2000/svg" viewBox="0 0 56.799 23.791"><path d="M51.38 8.886c.266.268.51.219.66-.096l-.66.096m-7.965-.003c.247.274.492.227.657-.09l-.657.09m.828.653-.137-.026-.31.485.4.081.047-.54m7.493.47.42.076.05-.552a13.64 13.64 0 0 1-.115-.03l-.355.506m-1.137.47c.236.244.394.173.552-.03l-.288-.328-.264.358m-7.954.008c.224.255.384.15.553-.034l-.306-.342-.247.376m9.374-2.817-.953.644c.628-.009.742-.082.953-.644m-7.916.067c-.317.159-.71.214-.897.623.469-.005.707-.28.897-.623m6.512 7.956c-.332.186-.372.337-.208.907l.606-.078v-.099l-.492-.195.094-.535m-8.06.26.604-.642-.088-.081-.688.602v.782l.77-.116c-.295-.196-.624-.145-.598-.544m.031-1.972 1.423-1.363c-1.114.277-1.582.727-1.423 1.363m9.307-1.284c-1.16.311-1.544.702-1.319 1.267l1.319-1.267m-7.063.002.348.22-.186.52c.133.057.266.112.393.165.189.498-.396.595-.458 1.014l.12.373c-.123.363-.419.715-.16 1.09.266.124.482.27.72.321.372.08.758.119 1.14.133.388.016.769.026 1.123.286.49-.084 1-.16 1.505-.266.118-.024.214-.15.298-.213.362-1.76-.13-3.494.13-5.183l-.397-.416.129-.419-.282-.574c.456-.42.564-.909.443-1.49-.076-.07-.17-.16-.283-.267-.048-.516.597-.898.243-1.542l-.338-.37c.624-.634.578-1.358.424-2.107a1.234 1.234 0 0 1-.006-.494c.097-.451.086-.885-.078-1.321-.056-.15-.035-.33-.051-.503-.587-.58-1.472-.252-2.106-.652.058-.41.111-.467.46-.46.64.011 1.278.04 1.917.045.264.002.528-.036.793-.091.672.258 1.439-.112 2.165.277l-.176 1.355.194.293-.145.507.436.263-.452.644.094 1.68.326.189-.393.88c.03.334-.088.763.058 1.225.113.359-.028.792-.023 1.19.009.715.044 1.428.064 2.142.003.116-.018.233-.03.38.094.07.197.148.29.22.22.383-.183.576-.263.893l.31.352-.171.457.396.152c.2.5-.388.596-.456 1.01l.12.386c-.104.351-.437.696-.16 1.087.252.117.468.255.705.317.303.081.622.113.936.145.363.036.728.05 1.077.072.078.495-.061.718-.52.759-.433.039-.902.095-1.304-.026-1.067-.323-2.13-.14-3.2-.15-.739-.007-1.407.32-2.13.29a4.069 4.069 0 0 1-.92-.158c-.87.204-1.724.017-2.588-.135-.438-.077-.9-.04-1.349-.028-.385.01-.774.107-1.152.07-.419-.04-.793.054-1.187.147a5.064 5.064 0 0 1-1.1.107c-.163.002-.329-.104-.495-.16.202-.535.317-.607.896-.607.65.001.796-.05 1.194-.422.34-1.715-.132-3.449.122-5.133l-.414-.445.158-.411-.302-.56c.473-.432.563-.925.445-1.5l-.285-.256c-.05-.517.578-.873.286-1.502l-.321-.348c.155-.322.366-.594.407-.89.057-.406-.015-.831-.03-1.249-.008-.18-.049-.37-.01-.542.098-.437.07-.854-.071-1.277-.056-.169-.052-.358-.077-.557-.588-.546-1.466-.232-2.1-.63-.034-.41.208-.462.48-.457.622.01 1.244.039 1.866.043.28.001.56-.037.976-.068.531.207 1.269-.085 2.013.216l-.157 1.39.182.315-.147.498.442.252-.459.647.1 1.652.313.272-.396.838.087 4.927.288.217c.212.38-.18.576-.284.956M11.242 12.588l.137.094.272-.408-.129-.089-.28.403m.693-1.474c.185-.3.185-.3-.193-.53.08.223.137.377.193.53m-9.988 2.035-.185-.326-.239.522.068.048.356-.244m9.749-1.7-.341-.547-.104.052.172.53c.09-.01.15-.019.273-.035M5.71 6.848l-.11-.11-.6.446.492.038.218-.374m1.227.56c-.045-.3-.212-.36-.448-.336-.03.444.058.51.448.337m-4.706 6.45-.129-.025-.35.505c.025.035.05.07.073.105.135-.053.321-.07.391-.169.068-.094.015-.275.015-.417m-.036 1.023c-.456.11-.637.393-.51.757l.51-.757m8.965-4.627.084.079.618-.303a9.466 9.466 0 0 0-.026-.095h-.533a70.74 70.74 0 0 1-.143.319m.369-1.137c-.171-.343-.348-.568-.723-.61-.064.093-.13.19-.21.303l.599.09v.45l.334-.233m-.14 4.066.728-.107c.233-.192.237-.393.089-.73-.237.36-.688.358-.816.837M4.616 8.43l.04.372.913-.534-.082-.416-.87.578M1.943 5.687 1.24 5.62l-.177.26.091.671.791-.865m4.502 3.922c.385.048.596-.033.98-.336.483-.38.994-.72 1.574-.938.177-.067.337-.138.325-.428l-.671.072-.187.388c-.693.221-1.65.812-2.021 1.242m4.424-2.437.055.464c.165.136.321.259.47.39.518.45.715 1.085.946 1.692.258.676.485 1.37.509 2.097.02.598-.019 1.202-.081 1.798-.047.447-.174.887-.29 1.45a7.323 7.323 0 0 1-1.565 1.358c-.549.358-1.101.684-1.736.89-1.146.375-2.277.34-3.418.027-.292-.08-.58-.175-.868-.267-.08-.025-.168-.047-.23-.098-.39-.316-.786-.625-1.154-.964-.395-.364-.675-.392-1.086-.043-.165.14-.323.29-.54.485-.138.221-.166.636-.67.72-.334-.415-.197-.959-.33-1.485l-.293-.339.245-.987-.21-.432.275-.976-.326-.491c.35-.823.634-1.677.501-2.6.361-.158.517-.001.62.266.107.278.214.556.38.816l.038.46.365.34c-.316.722.15 1.296.275 1.92l.532.232c.088.32.088.32-.048.787.928 1.877 4.286 3.289 6.916 1.471.065-.636.794-1.04.667-1.72l-.492-.46.265-.947-.59.035c-.29-.186-.141-.39-.052-.592-.239.06-.474.19-.667.144-.163-.039-.278-.282-.364-.508l-.535-.097-.056-.555-.569-.133-.241-.352c-.421.019-.65.658-1.137.312-.202-.312.053-.462.268-.67-.393-.162-.736-.318-1.088-.446-.347-.126-.704-.225-1.078-.343l-.562.169-.555-.38c-.288.02-.6-.067-.757-.377-.44.002-.72.526-1.195.217l.106-.586-.76.281-.328-.397.579-.514H.49c-.16-.383.168-.543.304-.83-.083-.169-.138-.4-.281-.546C.17 6.508.145 6.05.02 5.626c-.026-.09-.035-.232.016-.294.293-.358.176-.815.314-1.202.22-.616.47-1.223.741-1.819.178-.39.417-.752.629-1.127l.078.06c.207-.106.443-.176.618-.321.74-.612 1.618-.796 2.535-.87 1.113-.09 2.107.2 2.985.909.265.214.596.346.893.55 1.155.184 1.55-.635 1.869-1.5.53-.07.692.149.616.672a12.14 12.14 0 0 0-.106 1.498c-.005.264.075.53.104.796.067.614.124 1.229.19 1.843.065.589-.11.854-.668.934-.115-.218-.222-.461-.365-.683-.145-.224-.325-.427-.523-.682 0-.346-.126-.674-.51-.771-.573-.914-1.057-1.814-2.091-2.264C5.534.568 5.136.724 3.874.941l-.2.356c-.588.11-.588.11-1.3.825-.045.272-.075.515-.128.753-.121.535.177 1.081.818 1.44l.024.268c.213.192.379.38.58.513.377.249.763.489 1.165.691 1.078.543 2.246.784 3.43.962.198.03.407.053.586.135.46.212.928.262 1.428.197.192-.025.399.058.593.091M24.058 12.962l-.098-.105c-.188.118-.41.2-.381.55l.479-.445m1.567-1.58-.093-.13-.782.512.068.11c.26-.181.673-.096.807-.493m-.408-1.456.041-.875-.583.525.265.492.277-.142m-.543.361-.102-.148-.69.31c-.092.175-.17.326-.25.476l.094.08.948-.718m-1.101-1.738c.598-.088.754-.763 1.275-.924.004-.002-.008-.057-.013-.087-.612.044-1.002.351-1.262 1.011m.837 4.992c.631.086.972-.226.97-.805-.486.049-.563.538-.97.805m-7.693 7.266c.42-.036 1.362-.832 1.465-1.249-.46.566-1.26.54-1.465 1.249m1.572-6.685-.064-.124c-.596.137-1.065.569-1.676.751l.155.312 1.585-.939M16.96 13.7l.058.073 1.283-.71.257-.416c-.526-.164-.656.417-.926.392l-.672.66m6.818-4.29c.49-.074.694-.374.825-.714.633-.313.654-.345.475-.736-.437.46-1.006.783-1.3 1.45M18.142 16.7c-.68-.044-1.399.506-1.417 1.01.239.059.404-.028.543-.229.102-.146.228-.28.362-.397.16-.14.34-.257.512-.384m6.57-2.56-.114-.157c-.104.05-.212.092-.309.154-.11.07-.198.177-.313.233-.463.228-.692.699-.58 1.327l1.316-1.558m-7.858 7.142-.292.472c.791.141 1.479.012 2.167-.087-.008-.882-.008-.882-.39-.994l-.17.468c-.27.153-.582.33-.889.502l-.426-.361m2.613-6.694c.03.186.082.364.084.544.005.551.316.93.74 1.19.44.272.907.451 1.479.33.422-.09.681-.25.78-.658.053-.225.088-.454.12-.62l-.47-.612c.177-.405.683-.578.476-1.062-.129-.16-.26-.324-.413-.512l.512-.617c-.102-.644.363-1.318.084-1.865l.082-1.608c-.08-.165-.197-.403-.305-.62.076-.706-.218-1.293-.515-1.874-.22-.432-.58-.59-1.007-.37-.551.282-1.088.614-1.381 1.205-.014.028-.009.065-.012.097l.257.364-.95.855.52.126c.12.457-.5.463-.487.845l.2.719.058-.045.362.409-.472.358.473.224c.15.469-.24.57-.575.793l.542.04c.225.47-.544.359-.359.83.127.007.285.031.44.022.185-.012.379-.069.35.257l-.734.075c-.072.422.329.5.479.766l-.358.414m-1.41 2.73a195.3 195.3 0 0 1-.27.06l.225.375c-.532.27-1.045.52-1.395 1.124.787-.251 1.26-.804 1.842-1.15l-.373-.377.537-.147-.131-.349-.434.463M15.844 8.51a144.55 144.55 0 0 0-.364-.276l-.063-.882-.078-.016c.094-.153.188-.306.29-.469-.086-.304-.341-.278-.57-.286-.433-.016-.875.028-1.339-.214l.116-.567c.225-.016.412-.069.582-.035.641.127 1.271.038 1.909-.022.849-.079 1.703-.11 2.54-.162l.36.381-.112.701.385-.043c.28-.238.495-.447.737-.621.626-.451 1.328-.645 2.092-.506.545.099 1.08.247 1.702.392.354.285.813.58 1.177.964.484.513.693 1.165.682 1.88-.001.114.023.233.057.344.071.234.201.46.227.697.147 1.33.074 2.63-.402 3.913-.434 1.17-1.13 2.134-2.093 2.874-1.237.95-2.725 1.167-4.08.12-.072-.056-.172-.078-.291-.13l-.105.32.409.305a809.1 809.1 0 0 1-.381.772l.366.24-.245.671.201.38-.13.316v.8c.09.323.195.69.292 1.031.629.42 1.286-.014 1.889.133.053.423-.095.598-.5.629-.452.034-.904.073-1.357.095-1.057.053-2.116.08-3.17.153-.568.038-1.134.126-1.692.232-.413.08-.594.062-.916-.247.037-.395.339-.395.626-.38.558.027 1.02-.162 1.473-.656l-.11-3.068c.115-.51.163-1.186.006-1.856.013-.36.026-.718.037-1.077.007-.251.01-.502.014-.753.005-.251.01-.503.01-.754 0-.503.002-1.007-.008-1.51-.004-.267-.034-.533-.043-.8-.008-.231-.002-.462-.002-.743l-.303-.45.329-.584-.303-.712.15-.524M31.327 16.705c.249.21.469.129.711.054l-.479-.86-.298-.093c-.006-.123-.01-.208-.02-.372l-.754.653.985.216-.145.402m-.31-7.664-1.002.482-.18-.372c-.16.246-.342.454-.445.696-.121.286-.2.596-.247.904-.026.17.1.277.247.22l.581-.692.098-.304c.204-.383.818-.304.947-.934m-.917 3.282c-.293.453-.927.15-1.034.783l.29.731 1.487-1.065v-.742c-.51.017-.976-.202-1.495.132l.752.161m1.357-.808h3.504c.534-.56.118-1.194.196-1.78l-.347-.322.214-.469c-.04-.126-.1-.25-.113-.38-.013-.13.02-.264.031-.379l-.205-.303c.099-.515-.076-1.027-.405-1.208-.423-.233-1.054-.135-1.42.26-.223.24-.394.526-.557.748v.472c-.51.38-.764.92-.82 1.535-.052.589-.277 1.177-.078 1.826m-1.8 4.63-.092-.24-.754-.973.059-.516-.53-.809.103-.32-.31-.86.246-.384c.021-.65.049-1.282.295-1.881.044-.106.046-.23.062-.347.063-.458.08-.894.487-1.263.306-.276.44-.74.661-1.114.076-.129.162-.268.279-.353 1.101-.798 2.248-1.49 3.55-1.444 1.192.381 2.326.622 3.318 1.681.179.39.531 1.005.742 1.665.208.648.273 1.342.316 2.019l-.304.988c-.155.02-.338.082-.51.058-.748-.103-1.477.128-2.239.066-1.143-.092-2.308-.12-3.49.059-.132.47-.09.904.137 1.323l-.106.41.28.374c-.027.131-.055.277-.083.422.215.908.648 1.676 1.488 2.14.206.115.494.174.724.136.845-.142 1.676-.332 2.38-.885.666-.525.963-1.182.865-2.024-.033-.283-.082-.568-.075-.85.01-.343.205-.543.472-.553.277-.01.505.166.551.482.064.43.135.868-.097 1.28a.914.914 0 0 0-.096.233c-.317 1.383-1.27 2.159-2.53 2.624-.455.168-.921.325-1.396.414-1.425.269-2.698-.043-3.765-1.07-.18-.173-.397-.306-.638-.489M39.778 21.193c.576-.05 1.154.09 1.507-.446.288-.436.212-1.16-.095-1.52-.292-.342-.8-.42-1.412-.202Zm3.296 2.34c-.158.258-.342.272-.551.206a1.662 1.662 0 0 1-.965-.765c-.23-.39-.477-.771-.719-1.155-.217-.345-.521-.45-.94-.317v1.81l.379.214-.01.07H38.68a6.769 6.769 0 0 0-.02-.09l.58-.236c.18-1.42.024-2.82-.068-4.239l-.408-.218c.056-.05.092-.11.124-.108.802.05 1.608.074 2.405.173.577.071.946.64.877 1.216-.076.624-.233.848-.981 1.387.282.387.619.746.832 1.168.23.455.71.577 1.052.883M52.153 18.975c.167.26.28.524.168.967-.202-.269-.368-.448-.487-.654-.181-.316-.455-.49-.791-.428-.54.1-1.077.24-1.595.424-.177.063-.332.286-.426.472-.25.5-.405 1.032-.379 1.605.009.198-.025.399-.043.644.242.579.836.893 1.263 1.359.741.135 1.343.08 1.791-.182.144-.48-.05-.973-.03-1.482l-.59-.2c.28-.254 1.328-.29 1.709-.055l-.414.244v1.816c-.533.078-1.02.158-1.51.22-1.074.135-1.958-.205-2.616-1.079-.164-.218-.291-.451-.19-.749.03-.087.01-.2-.012-.296-.202-.916.152-1.654.757-2.294.29-.307.627-.563 1.105-.499.127.017.266-.04.395-.075.666-.184 1.297-.115 1.895.242M30.021 20.697c.25-.125.436-.233.634-.315.754-.31 1.327-.016 1.45.782.067.427.046.87.046 1.305 0 .28-.032.562-.05.837l.703.248-.03.153c-.531.084-1.057.045-1.663-.101.406-.433.437-.899.43-1.368-.007-.501-.038-1.003-.06-1.534-.658-.278-1.038.187-1.51.476v2.087l.732.147c-.5.27-1.537.326-1.941.16.122-.07.208-.132.304-.17.106-.043.221-.065.39-.112l-.129-4.893.47-.031c.324.751.054 1.528.224 2.329M44.266 22.417l.037.03c.008-.013.02-.024.024-.039.163-.55.163-.559-.06-.8Zm2.182-1.57c.053-.599.182-1.194-.311-1.63-.384-.338-.875-.338-1.38-.243v2.21c.64.227 1.137-.025 1.69-.337m-2.489 2.51.151-4.176.226.194c.153-.243.158-.436-.159-.582.84-.01 1.66-.114 2.412.328.664.39.793 1.398.222 1.935-.347.326-.721.591-1.261.488-.253-.048-.529.028-.833.05-.021.276-.05.525-.059.774-.01.267-.002.535-.002.877.246.14.51.29.77.44-.412.197-1.713.112-2.177-.192l.71-.135M26.893 23.574h-1.584l-.015-.091.438-.158c.178-.37.23-3.386.065-4.368l-1.194-.136-.573.913c-.154-.435-.106-.77.098-1.146 1.484-.128 2.972-.003 4.485.057.162.402.127.779-.104 1.185a742.05 742.05 0 0 0-.285-.735c-.57-.127-1.143-.19-1.758-.087v4.253l.445.212-.018.1M35.37 21.458c-.03-.652-.19-.9-.508-.91-.35-.01-.599.276-.686.854l1.195.056m.765 0c-.313.383-.717.32-1.068.36-.337.037-.686-.03-1.031-.05-.141.41-.048.73.147 1.009.214.306.54.492.91.43.311-.051.603-.219.903-.335l.07.09c-.1.123-.191.254-.301.367-.321.328-1.29.493-1.754.283-.544-.245-.802-.693-.822-1.28-.031-.876.549-1.795 1.37-2.112.189-.073.464-.105.63-.02.5.257.913.621.946 1.257M9.986 19.508l1.241-1.314c.226.553.49 1.096 1.148 1.429-.72.352-.868 1.042-1.212 1.64l-1.177-1.755M8.38 20.742l-.76.757-.657-.716.745-1.015.672.974M54.919 19.224l-.546-.096c-.037.464-.173.978.23 1.36h-.474v-1.344l-.527.065-.033-.272c.518-.14.953 0 1.39.132l-.04.155M56.321 20.488c.264-.29.238-.54.028-.84-.162.236-.233.34-.355.652-.07-.25-.566-.78-.566-.78-.01.04-.02.08-.027.12-.023.124-.055.364.016.559.058.16.212.29.27.29h-.497v-.113l.077-1.324-.002-.117.69.653.559-.653.285 1.553ZM27.399 4.7c-.067-.09-.209-.2-.228-.326-.03-.21.125-.367.333-.34.11.015.263.162.286.272.043.203-.092.34-.391.394M20.686 4.118c-.211.145-.343.305-.455.292-.12-.014-.29-.173-.319-.297-.044-.188.126-.326.31-.295.134.023.25.156.464.3" fill="#231f20" fill-rule="evenodd"/><path d="M39.617 4.037c.08.483.032.537-.423.502-.158-.45-.085-.543.423-.502M24.307 4.201c-.18.147-.293.294-.436.336-.085.024-.218-.118-.332-.188.285-.406.285-.406.768-.148M33.619 3.899c.224.222.226.393.046.53-.063.047-.232.058-.27.014-.076-.087-.16-.269-.12-.329.073-.107.236-.154.344-.215M36.052 4.172l.464-.095c.136.27.09.433-.134.487-.203.05-.304-.077-.33-.392M30.347 4.64c-.122-.17-.25-.27-.24-.357.01-.094.146-.175.227-.261.085.08.229.154.24.244.011.089-.11.195-.227.375M17.108 3.815c.085.256.054.428-.193.452-.181.018-.293-.116-.254-.29.054-.244.233-.242.447-.162M13.479 4.099c.026-.355.026-.355.375-.48.006.148.061.313.003.385-.062.076-.233.064-.378.095" fill="#231f20" fill-rule="evenodd"/></svg>