<svg xmlns="http://www.w3.org/2000/svg" viewBox="0 0 11.633 12.697"><path d="m5.682 4.082.111.095c.027.207-.042.322-.394.273l.283-.368M5.79 5.15l.114.092c-.049.077-.08.186-.15.221-.085.043-.201.022-.303.029l-.032-.13.37-.212M1.242 2.202l-.296.125-.147-.413c.303-.084.375.078.443.288M5.46 5.053c0-.352.102-.473.327-.397l.015.315-.342.082M1.148 2.801l-.126-.363.361-.104.167.276-.402.19m8.952.54-.034-.145c.339-.047.65-.279 1.014-.159l.021.129-1 .174m-1.293 7.598-.195-.397.49-.168c.066.282.106.505-.295.565m-1.24-7.512c-.41.446-.711.49-.907.16.287-.051.56-.1.906-.16M5.463 5.762l.517-.189.204.465-.504.188-.217-.464m2.783 4.231.928-.328-.042.496c-.161.062-.283.112-.407.155-.067.024-.139.036-.236.06l-.243-.383M1.386 3.32c-.06-.148-.1-.248-.144-.353.402-.299.785-.333 1.207-.061-.058.042-.1.087-.15.105-.286.101-.575.196-.913.309m2.307 2.706 1.249-.548.163.255-1.082.534-.33-.241m1.175-.717-1.345.586-.243-.282 1.463-.632.125.328m4.16-2.149-.015-.144 1.451-.486.266.324c-.608.118-1.114.457-1.702.306M4.565 6.684l-.404-.322 1.06-.49.306.421-.962.39m2.585.24-1.405.57c-.097-.08-.191-.156-.348-.282l1.328-.557.425.27M3.726 3.486c-.014.047-.014.07-.023.074-.535.218-1.068.441-1.61.643-.065.024-.173-.066-.261-.103l.001-.134c.543-.195 1.083-.396 1.63-.576.07-.023.176.062.263.096m.456.47L2.3 4.67l-.202-.288 1.853-.687.23.26m.321.59.166.294-1.546.668-.296-.31 1.676-.651m-2.78-.688-.259-.399 1.354-.462c.128.056.224.093.313.14.035.019.055.063.114.134l-1.522.587m7.425 5.632-1.012.373-.35-.467c.469-.185.874-.387 1.362-.473zm-6.75-4.709 1.89-.717.133.352c-.608.23-1.177.446-1.746.66l-.277-.295m2.825 2.343c-.141-.1-.278-.2-.477-.343l1.563-.614.269.364c-.477.21-.906.397-1.355.593m1.017-5.124c.102-.31.262-.473.484-.551a23.4 23.4 0 0 1 1.378-.439c.186-.053.39-.064.581.145l-2.443.845m2.92 6.675-1.509.568-.3-.353L9.095 8.2l.064.477m-.088-.653-1.889.757-.232-.196c.719-.413 1.36-.718 2.085-.927l.036.366m-3.194-.419c.661-.246 1.2-.461 1.75-.645.213-.071.44-.033.705.118l-2.133.85c-.077-.078-.164-.166-.322-.323m3.126-.17-2.203.92L6.413 8l2.257-.873.333.307m.346-5.965L6.014 2.53l-.069-.119c.112-.092.209-.225.337-.27.832-.299 1.67-.58 2.508-.862.185-.063.376-.09.559.19m.521.43L5.752 3.106l.124-.406 3.657-1.138c.091.065.155.101.207.15.039.037.064.09.13.187m-1.727.958c-.5.525-1.14.466-1.745.594l-.114-.325 3.774-1.094.304.406c-.794.128-1.42.621-2.219.42m-6.422-.426C1.19 1.65.636.824.08 0L.006.024c0 .077-.015.157.002.23.294 1.27.738 2.487 1.38 3.621.667 1.177 1.647 2.07 2.73 2.857.464.337.947.65 1.415.985 1.534 1.093 2.652 2.54 3.538 4.183.133.246.257.496.386.744.006.011.024.016.083.053-.054-.262-.099-.49-.15-.716-.15-.662.026-1.32.03-1.98.004-.782.027-1.564-.173-2.33-.172-.66-.452-.9-1.128-.98-.044-.005-.089-.006-.133-.009C6.95 6.617 6.361 6.13 6.16 5.124a3.661 3.661 0 0 1 .005-1.495c.07.036.114.046.142.073.496.467.869.487 1.385.04.198-.172.36-.384.572-.614.13.05.285.09.423.163.62.324 1.283.306 1.946.241.437-.042.727-.236 1.001-.61-.536-.037-.824-.409-1.129-.77a9.283 9.283 0 0 0-.795-.828C8.64.337 6.481.418 5.74 2.244c-.176.435-.309.892-.412 1.35-.102.456-.14.927-.221 1.485-.194-.364-.33-.694-.531-.977-.21-.296-.452-.588-.737-.808-.287-.22-.634-.374-.972-.512-.339-.137-.7-.216-1.146-.35" fill="#231f20" fill-rule="evenodd"/><path d="m4.935 9.27.021.1-.607.238-.19-.299.776-.038m2.27 2.267c.423-.304.493-.306.646-.026-.196.146-.391.248-.647.026m-.81-.345 1.155-.38.122.312-.792.323-.485-.255M4.442 9.782c.633-.42 1.34-.528 1.649-.237l-1.496.52-.153-.283m2.265-.048-.02.12-1.822.585-.19-.276c.59-.19 1.137-.375 1.693-.532.095-.027.225.065.339.103m-.83 1.296a19.06 19.06 0 0 0-.03-.128l1.17-.424-.036-.103-1.53.501-.479-.316 2.014-.603.482.739c-.602.058-1.027.531-1.592.334m2.95 1.52c-.476-.808-.924-1.636-1.44-2.419-.416-.634-1.04-.988-1.819-1.007-.425-.01-.85-.002-1.274.013-.106.004-.21.067-.34.112.402.916.84 1.698 1.842 2.053.912.322 1.777.776 2.662 1.172.105.047.209.097.312.146l.058-.07M8.07 5.115l-.006-.117h.703l.002.081-.698.036m.438-.419.01.104c-.228.032-.455.065-.683.092-.036.005-.076-.022-.159-.048.29-.175.554-.204.832-.148m.062-.243-1.203.168c.162.48.513.696.842.971.179-.065.353-.14.533-.193.18-.052.367-.084.591-.133l-.763-.813M4.406 8.515l-.166-.009-.086-.47c.129-.012.218-.02.36-.031l-.108.51m.473-.705.128.625-.459.01c.112-.22-.05-.47.331-.635m-.755.851 1.622.022-.87-1.018-1.091.217.34.78" fill="#231f20" fill-rule="evenodd"/></svg>