<svg xmlns="http://www.w3.org/2000/svg" viewBox="0 0 18.346 16.845"><path d="m10.044 8.135.274-.385-.083-.097-.723.322.532.16M6.097 5.01l.467-.412c-.522-.057-.66-.016-.966.279l.499.133m2.324 3.064-.013.152c.433.038.841.352 1.297.124l.015-.173-1.3-.103M5.226 4.967l-.417.412 1.104.213.09-.445-.777-.18m-.723.908 1.343.332v-.49l-1.112-.248-.23.406m-.138.57 1.625.337-.147-.46-1.392-.313-.086.436M8.43 8.928l-3.392-.623c.565.7 2.652 1.073 3.392.623m.721-.175-.011-.2L4.7 7.72c.002.353.213.391.431.434 1.153.224 2.304.459 3.46.67.176.032.372-.045.558-.071M4.784 7.116l-.328.054c.128.316.126.326.354.377.442.1.886.193 1.331.278.24.046.484.072.801.117-.21-.315-.46-.39-.722-.455-.485-.12-.967-.253-1.45-.38l1.584.273-.317-.466c-.568-.104-1.096-.297-1.649-.319-.1.414.23.394.396.521m4.078-1.56c-.097.61-.505.841-.801 1.149-.17.176-.57.139-.755-.012-.19-.156-.24-.362-.175-.59.072-.256.324-.408.635-.39.128.009.255.04.39.061-.104-.572-.529-.932-1.078-.938-.468-.006-.741.253-.86.816-.226 1.062.385 1.955 1.513 2.154.634.112 1.287.117 1.887-.15.368-.163.69-.43 1.056-.666.19.217.404.518.675.752.274.236.604.405.997.66-.726.07-1.3-.107-1.89-.39-.099.091-.206.191-.31.293-1.191 1.149-2.985 1.494-4.444.899-1.364-.556-1.814-2.07-1.617-3.113.183-.965 1.174-1.775 2.256-1.884.839-.084 1.57.143 2.137.787.162.184.28.406.384.563M16.202 6.1l-.755-.12c.228.2.473.296.755.12m-.247-5.036-.028.108 1.337.455c-.36-.396-.781-.623-1.309-.563m-.413 4.705c-.344-.304-.765-.351-1.192-.382.296.44.743.415 1.192.382m-2.18-2.07c-.033.306.066.442.3.492.316.068.632.14 1 .222l-.059-.435-1.242-.28m2.45-1.912c-.426-.14-.782-.266-1.145-.37-.23-.067-.375.046-.468.293l1.278.362.336-.285m-.961-.527c.588.216 1.131.64 1.819.381-.605-.137-1.109-.7-1.819-.381m-1.62 2.24 1.421.334v-.46l-1.358-.318-.062.444m.265-1.104-.186.512 1.454.344.15-.43-1.418-.426M14.7 4.588l-1.128-.284c.26.757.681 1.011 1.469.933l-.341-.649m-.697-2.806-.411.489 1.416.42.296-.5-1.301-.409m3.011 2.224c.534-.047.823-.318.95-.848.098-.401-.028-.688-.44-.915-.699-.382-1.82-.394-2.293.684-.54 1.231-.227 2.204.984 2.812.295.147.598.278.898.417l.01.113c-.157.066-.308.165-.47.193-1.78.3-3.702-1.334-3.71-3.147-.004-1.023.592-1.701 1.374-2.216 1.38-.91 2.776-.304 3.631.532.714.697.415 2.122-.485 2.544-.363.17-.687.08-.99-.145-.28-.206-.422-.477-.37-.83.057-.377.308-.536.693-.447.419.096.601.356.48.721-.056.17-.157.324-.262.532M15.205 11.574c.283.114.56.191.788-.158-.328-.136-.567-.041-.788.158m-.515 4.528-.023.129c.55.31 1.14.23 1.727.174l.01-.099zm.058-3.305.173-.42-.799-.122-.3.424.926.118m-.459-.635.754.128.372-.424c-.607-.216-.734-.183-1.126.296m.338 1.896v-.394l-1.195-.21c-.04.13-.07.23-.117.378l1.312.226m.002-.558.042-.561-.97-.11-.212.467 1.14.204m-1.384.926 1.595.205c-.115-.449-.71-.642-1.57-.56l-.025.355m.142.194-.065.102c.08.113.141.302.242.326.541.127 1.087.264 1.734.246l-.315-.486-1.596-.188m3.977 1.253-3.687-.597c.193.395.406.6.76.64.75.087 1.5.176 2.25.27.275.035.478-.056.677-.313m-.243-4.53c-.144.071-.287.143-.432.211-.198.093-.406.168-.595.276-1.45.832-1.393 2.11-.53 3.242.497.653 1.809.57 2.297-.088.225-.302.148-.614.005-.908-.165-.342-.396-.622-.895-.61.175.353.537.656.245 1.047-.203.272-.511.296-.824.232-.349-.356-.392-.724-.128-1.07.312-.408.838-.541 1.258-.317.885.474 1.124 1.9.379 2.566-1.803 1.611-3.787.955-4.748-.792a1.787 1.787 0 0 1-.177-1.325c.335-1.275 1.03-2.277 2.365-2.651.424-.119.894-.087 1.344-.09.145-.001.29.104.435.16l.001.118" fill="#231f20" fill-rule="evenodd"/><path d="M13.025 6.358c-.272-.414-.439-.763-.956-.727l.028.511.928.216m-.825-.062-.11.12c.077.114.132.299.234.329a6.01 6.01 0 0 0 1.522.258c-.5-.556-1.113-.527-1.646-.707m.567 1.212-.034.151c.51.469 1.182.354 1.797.497l.115-.35-1.878-.298m-.374-.564-.064.132c.097.087.183.232.292.251.677.121 1.358.22 2.04.309.085.011.183-.076.275-.118l-.01-.119-2.533-.455m-.155-2.884c.223.798.477 1.57 1.113 2.143.633.57 1.353.914 2.287.967L14.59 8.425l.06.062c-.061.025-.122.07-.184.072a2.592 2.592 0 0 1-2.623-2.067 3.04 3.04 0 0 1 .048-1.494c.086-.299.156-.603.232-.905l.114-.033M12.084 11.846l.048.514.117.012.205-.45-.37-.076m2.36-2.724-.617.203.022.106.722.094-.126-.403m-1.526 2.142-.812-.12v.515l.525.047.287-.442m-.642-.713-.106.444.912.164.449-.42-1.255-.188m2.39-.874c-1.303-.253-1.385-.249-1.676.113.675.122 1.326.24 1.976.356l.038-.097-.338-.372m-2.247.624c.841.37 1.453.35 1.996-.11l-1.751-.269-.245.379m3.202.016c-1.95.21-2.97 1.372-3.448 3.142-.21-.826-.53-1.582-.338-2.436.299-1.324 1.455-2.2 2.677-2.045l1.109 1.339M9.991 3.385l-.082.075.307.57.254-.535-.479-.11m.6-.036.045-.18-1.017-.274-.039.14c.293.251.661.251 1.01.314m-.798-1.704 1.136.295c-.117-.489-.512-.788-.88-.68l-.256.385m1.743.964c-.3-.438-1.132-.81-1.702-.804-.118.001-.235.101-.353.155l.01.153c.652.14 1.255.46 2.045.496M9.03 2.358l.011.185 1.805.517c.088-.107.157-.19.28-.336-.615-.178-1.165-.35-1.722-.488-.108-.027-.249.078-.374.122m-.393.038c.826-.618 1.476-1.351 1.726-2.396.41.905.794 1.807 1.464 2.529-.336.314-.707.581-.97.93-.267.353-.428.787-.64 1.194-.204-.378-.382-.793-.634-1.156-.256-.37-.586-.688-.946-1.101M1.345 7.29c.165.032.28.055.468.09L1.6 6.809l-.093.01-.163.472m.344 2.125-.731-.14c.078.314.19.486.497.49l.234-.35m-.547-1.628c.33.09.624.17.968.262-.12-.538-.486-.524-.857-.568l-.111.306m.926 1.17C1.393 8.64.595 8.499.303 8.635c.34.568.956.449 1.466.64l.299-.318m.63-.547L1.005 7.9l-.341.457 1.676.413.356-.36M0 8.518c.878-.536 1.198-1.46 1.538-2.493.395.94.592 1.852 1.334 2.405l-1.538 2.062L0 8.518M8.246 11.324l.81.145.05-.151-.64-.315-.22.321m.618.732.253-.386-1.03-.257c.069.512.378.591.777.643m.605-.476-.853 1.372-.747-1.363.816-1.204.784 1.195" fill="#231f20" fill-rule="evenodd"/></svg>