<svg xmlns="http://www.w3.org/2000/svg" viewBox="0 0 55.88 17.035"><path d="M3.988 10.003c0 1.027 1.147 1.707 2.09 1.707.943 0 2.148-.68 2.148-1.707 0-1.443 1.58-1.443 2.11-1.443h-.04c-.53 0-2.128 0-2.128-1.442 0-1.027-1.147-1.707-2.09-1.707-1.281 0-1.896.353-2.18 1.34-.485 1.693-1.212 1.79-1.862 1.807v.003c.641.012 1.952.136 1.952 1.441" fill="#fff"/><path d="M10.62 0c-.838 0-1.517.68-1.517 1.517v.904a.75.75 0 0 1 .006.094v.829a.753.753 0 0 1-1.506 0s-.022-.414-.024-.414a1.517 1.517 0 0 0-3.02 0c-.003 0-.025.414-.025.414a.753.753 0 1 1-1.506 0v-.829a.75.75 0 0 1 .006-.094v-.904a1.517 1.517 0 1 0-3.034 0l.21 2.93.313 2.563c.115.826.38 1.517.994 1.517h.768c.558.023 1.642 0 1.874-1.281.163-.9 1.072-1.518 1.91-1.518.837 0 1.747.619 1.91 1.518.23 1.281 1.316 1.304 1.874 1.281h.767c.615 0 .88-.691.994-1.517l.314-2.563.21-2.93C12.137.68 11.457 0 10.62 0" fill="#dcd5d7"/><path d="M10.62 17.035c-.838 0-1.517-.68-1.517-1.517v-.904a.75.75 0 0 0 .006-.094v-.83a.753.753 0 0 0-1.506 0s-.022.415-.024.415a1.517 1.517 0 0 1-3.02 0c-.003 0-.025-.414-.025-.414a.753.753 0 1 0-1.506 0v.829a.75.75 0 0 0 .006.094v.904a1.517 1.517 0 1 1-3.034 0l.21-2.93.313-2.563c.115-.826.38-1.517.994-1.517h.768c.558-.023 1.642 0 1.874 1.281.163.9 1.072 1.517 1.91 1.517.837 0 1.747-.618 1.91-1.517.23-1.281 1.316-1.304 1.874-1.281h.767c.615 0 .88.691.994 1.517l.314 2.563.21 2.93c0 .838-.68 1.517-1.518 1.517" fill="#8a8888"/><path d="M21.014 7.625c-.91 0-1.675-.45-1.981-1.103-.306.652-1.071 1.103-1.981 1.103-1.272 0-2.15-.87-2.15-2.134V1.947h.95v3.544c0 .765.54 1.28 1.337 1.28.821 0 1.36-.515 1.369-1.28V1.947h.942v3.544c0 .765.564 1.28 1.377 1.28.797 0 1.321-.515 1.321-1.28V1.947h.95v3.544c0 1.264-.87 2.134-2.134 2.134M25.86 1.947v2.449h2.988V1.947h.951v5.638h-.95V5.249H25.86v2.336h-.95V1.947ZM33.366 2.801v3.93h1.063v.854h-3.077v-.854h1.063v-3.93h-1.063v-.854h3.077v.854ZM38.004 1.947c.91 0 1.675.452 1.981 1.104.306-.652 1.071-1.104 1.981-1.104 1.272 0 2.15.87 2.15 2.135v3.543h-.95V4.082c0-.765-.54-1.28-1.337-1.28-.821 0-1.36.515-1.369 1.28v3.543h-.942V4.082c0-.765-.564-1.28-1.377-1.28-.797 0-1.321.515-1.321 1.28v3.543h-.95V4.082c0-1.265.87-2.135 2.134-2.135M47.658 2.801c-.556 0-.918.21-.918.588 0 1.232 3.044.572 3.036 2.602 0 1.006-.886 1.626-2.126 1.626a3.466 3.466 0 0 1-2.303-.894l.41-.821c.58.531 1.305.821 1.91.821.66 0 1.054-.25 1.054-.684 0-1.257-3.044-.556-3.044-2.561 0-.967.83-1.57 2.054-1.57.733 0 1.45.233 1.973.58l-.395.837c-.612-.37-1.224-.524-1.65-.524M55.88 1.947V6.2c0 1.328-.966 2.23-2.376 2.23-.877 0-1.796-.37-2.279-.91l.451-.676c.403.427 1.103.733 1.715.733.903 0 1.547-.58 1.547-1.393v-.75c-.363.557-.95.887-1.667.895-1.232 0-2.094-.862-2.094-2.11V1.947h.95V4.13c0 .773.548 1.32 1.329 1.32.87-.007 1.482-.708 1.482-1.698V1.947ZM16.892 9.712c.847 0 1.56.42 1.844 1.027.285-.607.998-1.027 1.845-1.027 1.185 0 2.002.81 2.002 1.987V15H21.7v-3.3c0-.712-.503-1.192-1.245-1.192-.765 0-1.268.48-1.275 1.192V15h-.878v-3.3c0-.712-.525-1.192-1.282-1.192-.742 0-1.23.48-1.23 1.192V15h-.885v-3.3c0-1.177.81-1.987 1.988-1.987M26.406 10.477c-.878 0-1.41.54-1.403 1.417l-.007.878h2.827v-.878c-.008-.877-.533-1.417-1.417-1.417m-.008-.795c1.432 0 2.302.847 2.302 2.212v3.067h-.877V13.56h-2.82v1.402h-.885v-3.067c0-1.365.87-2.212 2.28-2.212M32.68 10.477c-1.049 0-1.874.81-1.874 1.844 0 1.035.825 1.853 1.875 1.853.525 0 1.065-.24 1.462-.622l.525.584c-.532.525-1.29.863-2.032.863-1.537 0-2.73-1.163-2.73-2.67 0-1.492 1.207-2.64 2.76-2.64.742 0 1.484.308 1.995.81l-.518.645c-.382-.412-.93-.667-1.462-.667M36.827 9.712v2.28h2.782v-2.28h.885v5.25h-.885v-2.175h-2.782v2.174h-.885V9.712ZM43.815 10.507v3.66h.99v.794H41.94v-.795h.99v-3.66h-.99v-.794h2.864v.795ZM50.75 11.632v3.33h-.892v-3.12c0-.757-.51-1.275-1.245-1.275-.862.015-1.477.705-1.477 1.575v2.82h-.885v-5.25h.885v.855c.382-.525 1.012-.848 1.785-.855 1.065 0 1.83.78 1.83 1.92M52.167 13.7c0-.578.284-1.082.683-1.303-.4-.215-.683-.714-.683-1.297 0-.845.604-1.444 1.455-1.444h2.258v.83h-2.258c-.43 0-.73.31-.73.746 0 .446.3.745.73.75h2.258v.83h-2.258c-.43 0-.73.315-.73.761 0 .436.3.725.73.725h2.258v.83h-2.258c-.851 0-1.455-.588-1.455-1.429" fill="#fff"/></svg>